# xmcd
#
# Track frame offsets: 
#        150
#        17450
#        35907
#        51000
#        63475
#        75817
#        92470
#        108105
#        124025
#        137655
#
# Disc length: 2052 seconds
#
# Revision: 5
# Processed by: cddbd v1.5.2PL0 Copyright (c) Steve Scherf et al.
# Submitted via: ExactAudioCopy v0.99pb5
#
DISCID=7008020a
DTITLE=Various Artist - Hot Country '97
DYEAR=1997
DGENRE=Country
TTITLE0=Alan Jackson - Livin' On Love
TTITLE1=Martina McBride - Life #9
TTITLE2=Alabama - Reckless
TTITLE3=Lorrie Morgan - What Part Of No
TTITLE4=Ty England - Should've Asked Her Faster
TTITLE5=Diamond Rio - Love A Little Stronger
TTITLE6=Lari White - That's My Baby
TTITLE7=Radney Foster - Nobody Wins
TTITLE8=John Anderson - Money In The Bank
TTITLE9=Doug Stone - Little Houses
EXTD=
EXTT0=
EXTT1=
EXTT2=
EXTT3=
EXTT4=
EXTT5=
EXTT6=
EXTT7=
EXTT8=
EXTT9=
PLAYORDER=
